# MagicaVoxel @ Ephtracy

# group
o 

# material
mtllib AmbulanceFrontWheels.mtl
usemtl palette

# normals
vn -1 0 0
vn 1 0 0
vn 0 0 1
vn 0 0 -1
vn 0 -1 0
vn 0 1 0

# texcoords
vt 0.970703 0.5
vt 0.986328 0.5

# verts
v -1.4 0 2.3
v -1.4 0 1.9
v -1.4 0.1 2.5
v -1.4 0.1 2.3
v -1.4 0.1 1.9
v -1.4 0.1 1.7
v -1.4 0.2 2.3
v -1.4 0.2 1.9
v -1.4 0.3 2.6
v -1.4 0.3 2.5
v -1.4 0.3 2.4
v -1.4 0.3 2.3
v -1.4 0.3 1.9
v -1.4 0.3 1.8
v -1.4 0.3 1.7
v -1.4 0.3 1.6
v -1.4 0.7 2.6
v -1.4 0.7 2.5
v -1.4 0.7 2.4
v -1.4 0.7 2.3
v -1.4 0.7 1.9
v -1.4 0.7 1.8
v -1.4 0.7 1.7
v -1.4 0.7 1.6
v -1.4 0.8 2.3
v -1.4 0.8 1.9
v -1.4 0.9 2.5
v -1.4 0.9 2.3
v -1.4 0.9 1.9
v -1.4 0.9 1.7
v -1.4 1 2.3
v -1.4 1 1.9
v 1.1 0 2.3
v 1.1 0 1.9
v 1.1 0.1 2.5
v 1.1 0.1 2.3
v 1.1 0.1 1.9
v 1.1 0.1 1.7
v 1.1 0.3 2.6
v 1.1 0.3 2.5
v 1.1 0.3 1.7
v 1.1 0.3 1.6
v 1.1 0.7 2.6
v 1.1 0.7 2.5
v 1.1 0.7 1.7
v 1.1 0.7 1.6
v 1.1 0.9 2.5
v 1.1 0.9 2.3
v 1.1 0.9 1.9
v 1.1 0.9 1.7
v 1.1 1 2.3
v 1.1 1 1.9
v -1.1 0 2.3
v -1.1 0 1.9
v -1.1 0.1 2.5
v -1.1 0.1 2.3
v -1.1 0.1 1.9
v -1.1 0.1 1.7
v -1.1 0.3 2.6
v -1.1 0.3 2.5
v -1.1 0.3 1.7
v -1.1 0.3 1.6
v -1.1 0.7 2.6
v -1.1 0.7 2.5
v -1.1 0.7 1.7
v -1.1 0.7 1.6
v -1.1 0.9 2.5
v -1.1 0.9 2.3
v -1.1 0.9 1.9
v -1.1 0.9 1.7
v -1.1 1 2.3
v -1.1 1 1.9
v 1.4 0 2.3
v 1.4 0 1.9
v 1.4 0.1 2.5
v 1.4 0.1 2.3
v 1.4 0.1 1.9
v 1.4 0.1 1.7
v 1.4 0.2 2.3
v 1.4 0.2 1.9
v 1.4 0.3 2.6
v 1.4 0.3 2.5
v 1.4 0.3 2.4
v 1.4 0.3 2.3
v 1.4 0.3 1.9
v 1.4 0.3 1.8
v 1.4 0.3 1.7
v 1.4 0.3 1.6
v 1.4 0.7 2.6
v 1.4 0.7 2.5
v 1.4 0.7 2.4
v 1.4 0.7 2.3
v 1.4 0.7 1.9
v 1.4 0.7 1.8
v 1.4 0.7 1.7
v 1.4 0.7 1.6
v 1.4 0.8 2.3
v 1.4 0.8 1.9
v 1.4 0.9 2.5
v 1.4 0.9 2.3
v 1.4 0.9 1.9
v 1.4 0.9 1.7
v 1.4 1 2.3
v 1.4 1 1.9
v -1.4 0.3 2.6
v -1.4 0.7 2.6
v -1.1 0.3 2.6
v -1.1 0.7 2.6
v 1.1 0.3 2.6
v 1.1 0.7 2.6
v 1.4 0.3 2.6
v 1.4 0.7 2.6
v -1.4 0.1 2.5
v -1.4 0.3 2.5
v -1.4 0.7 2.5
v -1.4 0.9 2.5
v -1.1 0.1 2.5
v -1.1 0.3 2.5
v -1.1 0.7 2.5
v -1.1 0.9 2.5
v 1.1 0.1 2.5
v 1.1 0.3 2.5
v 1.1 0.7 2.5
v 1.1 0.9 2.5
v 1.4 0.1 2.5
v 1.4 0.3 2.5
v 1.4 0.7 2.5
v 1.4 0.9 2.5
v -1.4 0 2.3
v -1.4 0.1 2.3
v -1.4 0.9 2.3
v -1.4 1 2.3
v -1.1 0 2.3
v -1.1 0.1 2.3
v -1.1 0.9 2.3
v -1.1 1 2.3
v 1.1 0 2.3
v 1.1 0.1 2.3
v 1.1 0.9 2.3
v 1.1 1 2.3
v 1.4 0 2.3
v 1.4 0.1 2.3
v 1.4 0.9 2.3
v 1.4 1 2.3
v -1.4 0 1.9
v -1.4 0.1 1.9
v -1.4 0.9 1.9
v -1.4 1 1.9
v -1.1 0 1.9
v -1.1 0.1 1.9
v -1.1 0.9 1.9
v -1.1 1 1.9
v 1.1 0 1.9
v 1.1 0.1 1.9
v 1.1 0.9 1.9
v 1.1 1 1.9
v 1.4 0 1.9
v 1.4 0.1 1.9
v 1.4 0.9 1.9
v 1.4 1 1.9
v -1.4 0.1 1.7
v -1.4 0.3 1.7
v -1.4 0.7 1.7
v -1.4 0.9 1.7
v -1.1 0.1 1.7
v -1.1 0.3 1.7
v -1.1 0.7 1.7
v -1.1 0.9 1.7
v 1.1 0.1 1.7
v 1.1 0.3 1.7
v 1.1 0.7 1.7
v 1.1 0.9 1.7
v 1.4 0.1 1.7
v 1.4 0.3 1.7
v 1.4 0.7 1.7
v 1.4 0.9 1.7
v -1.4 0.3 1.6
v -1.4 0.7 1.6
v -1.1 0.3 1.6
v -1.1 0.7 1.6
v 1.1 0.3 1.6
v 1.1 0.7 1.6
v 1.4 0.3 1.6
v 1.4 0.7 1.6
v -1.4 0 2.3
v -1.1 0 2.3
v 1.1 0 2.3
v 1.4 0 2.3
v -1.4 0 1.9
v -1.1 0 1.9
v 1.1 0 1.9
v 1.4 0 1.9
v -1.4 0.1 2.5
v -1.1 0.1 2.5
v 1.1 0.1 2.5
v 1.4 0.1 2.5
v -1.4 0.1 2.3
v -1.1 0.1 2.3
v 1.1 0.1 2.3
v 1.4 0.1 2.3
v -1.4 0.1 1.9
v -1.1 0.1 1.9
v 1.1 0.1 1.9
v 1.4 0.1 1.9
v -1.4 0.1 1.7
v -1.1 0.1 1.7
v 1.1 0.1 1.7
v 1.4 0.1 1.7
v -1.4 0.3 2.6
v -1.1 0.3 2.6
v 1.1 0.3 2.6
v 1.4 0.3 2.6
v -1.4 0.3 2.5
v -1.1 0.3 2.5
v 1.1 0.3 2.5
v 1.4 0.3 2.5
v -1.4 0.3 1.7
v -1.1 0.3 1.7
v 1.1 0.3 1.7
v 1.4 0.3 1.7
v -1.4 0.3 1.6
v -1.1 0.3 1.6
v 1.1 0.3 1.6
v 1.4 0.3 1.6
v -1.4 0.7 2.6
v -1.1 0.7 2.6
v 1.1 0.7 2.6
v 1.4 0.7 2.6
v -1.4 0.7 2.5
v -1.1 0.7 2.5
v 1.1 0.7 2.5
v 1.4 0.7 2.5
v -1.4 0.7 1.7
v -1.1 0.7 1.7
v 1.1 0.7 1.7
v 1.4 0.7 1.7
v -1.4 0.7 1.6
v -1.1 0.7 1.6
v 1.1 0.7 1.6
v 1.4 0.7 1.6
v -1.4 0.9 2.5
v -1.1 0.9 2.5
v 1.1 0.9 2.5
v 1.4 0.9 2.5
v -1.4 0.9 2.3
v -1.1 0.9 2.3
v 1.1 0.9 2.3
v 1.4 0.9 2.3
v -1.4 0.9 1.9
v -1.1 0.9 1.9
v 1.1 0.9 1.9
v 1.4 0.9 1.9
v -1.4 0.9 1.7
v -1.1 0.9 1.7
v 1.1 0.9 1.7
v 1.4 0.9 1.7
v -1.4 1 2.3
v -1.1 1 2.3
v 1.1 1 2.3
v 1.4 1 2.3
v -1.4 1 1.9
v -1.1 1 1.9
v 1.1 1 1.9
v 1.4 1 1.9

# faces
f 4/1/1 2/1/1 1/1/1
f 5/1/1 2/1/1 4/1/1
f 7/1/1 4/1/1 3/1/1
f 7/1/1 6/1/1 5/1/1
f 7/1/1 5/1/1 4/1/1
f 8/1/1 6/1/1 7/1/1
f 10/1/1 7/1/1 3/1/1
f 11/1/1 7/1/1 10/1/1
f 12/2/1 8/2/1 7/2/1
f 12/1/1 7/1/1 11/1/1
f 13/1/1 6/1/1 8/1/1
f 13/2/1 8/2/1 12/2/1
f 14/1/1 6/1/1 13/1/1
f 15/1/1 6/1/1 14/1/1
f 17/1/1 11/1/1 10/1/1
f 17/1/1 10/1/1 9/1/1
f 18/1/1 11/1/1 17/1/1
f 19/2/1 12/2/1 11/2/1
f 19/1/1 11/1/1 18/1/1
f 19/2/1 13/2/1 12/2/1
f 19/2/1 14/2/1 13/2/1
f 20/2/1 14/2/1 19/2/1
f 21/2/1 14/2/1 20/2/1
f 22/1/1 16/1/1 15/1/1
f 22/2/1 14/2/1 21/2/1
f 22/1/1 15/1/1 14/1/1
f 23/1/1 16/1/1 22/1/1
f 24/1/1 16/1/1 23/1/1
f 25/2/1 21/2/1 20/2/1
f 25/1/1 20/1/1 19/1/1
f 25/1/1 19/1/1 18/1/1
f 26/1/1 23/1/1 22/1/1
f 26/2/1 21/2/1 25/2/1
f 26/1/1 22/1/1 21/1/1
f 27/1/1 25/1/1 18/1/1
f 27/1/1 26/1/1 25/1/1
f 28/1/1 26/1/1 27/1/1
f 29/1/1 23/1/1 26/1/1
f 29/1/1 26/1/1 28/1/1
f 30/1/1 23/1/1 29/1/1
f 31/1/1 29/1/1 28/1/1
f 32/1/1 29/1/1 31/1/1
f 36/1/1 34/1/1 33/1/1
f 37/1/1 34/1/1 36/1/1
f 40/1/1 36/1/1 35/1/1
f 40/1/1 38/1/1 37/1/1
f 40/1/1 37/1/1 36/1/1
f 41/1/1 38/1/1 40/1/1
f 43/1/1 40/1/1 39/1/1
f 43/1/1 42/1/1 41/1/1
f 43/1/1 41/1/1 40/1/1
f 44/1/1 42/1/1 43/1/1
f 45/1/1 42/1/1 44/1/1
f 46/1/1 42/1/1 45/1/1
f 47/1/1 45/1/1 44/1/1
f 48/1/1 45/1/1 47/1/1
f 49/1/1 45/1/1 48/1/1
f 50/1/1 45/1/1 49/1/1
f 51/1/1 49/1/1 48/1/1
f 52/1/1 49/1/1 51/1/1
f 53/1/2 54/1/2 56/1/2
f 56/1/2 54/1/2 57/1/2
f 55/1/2 56/1/2 60/1/2
f 57/1/2 58/1/2 60/1/2
f 56/1/2 57/1/2 60/1/2
f 60/1/2 58/1/2 61/1/2
f 59/1/2 60/1/2 63/1/2
f 61/1/2 62/1/2 63/1/2
f 60/1/2 61/1/2 63/1/2
f 63/1/2 62/1/2 64/1/2
f 64/1/2 62/1/2 65/1/2
f 65/1/2 62/1/2 66/1/2
f 64/1/2 65/1/2 67/1/2
f 67/1/2 65/1/2 68/1/2
f 68/1/2 65/1/2 69/1/2
f 69/1/2 65/1/2 70/1/2
f 68/1/2 69/1/2 71/1/2
f 71/1/2 69/1/2 72/1/2
f 73/1/2 74/1/2 76/1/2
f 76/1/2 74/1/2 77/1/2
f 75/1/2 76/1/2 79/1/2
f 77/1/2 78/1/2 79/1/2
f 76/1/2 77/1/2 79/1/2
f 79/1/2 78/1/2 80/1/2
f 75/1/2 79/1/2 82/1/2
f 82/1/2 79/1/2 83/1/2
f 79/2/2 80/2/2 84/2/2
f 83/1/2 79/1/2 84/1/2
f 80/1/2 78/1/2 85/1/2
f 84/2/2 80/2/2 85/2/2
f 85/1/2 78/1/2 86/1/2
f 86/1/2 78/1/2 87/1/2
f 82/1/2 83/1/2 89/1/2
f 81/1/2 82/1/2 89/1/2
f 89/1/2 83/1/2 90/1/2
f 83/2/2 84/2/2 91/2/2
f 90/1/2 83/1/2 91/1/2
f 84/2/2 85/2/2 91/2/2
f 85/2/2 86/2/2 91/2/2
f 91/2/2 86/2/2 92/2/2
f 92/2/2 86/2/2 93/2/2
f 87/1/2 88/1/2 94/1/2
f 93/2/2 86/2/2 94/2/2
f 86/1/2 87/1/2 94/1/2
f 94/1/2 88/1/2 95/1/2
f 95/1/2 88/1/2 96/1/2
f 92/2/2 93/2/2 97/2/2
f 91/1/2 92/1/2 97/1/2
f 90/1/2 91/1/2 97/1/2
f 94/1/2 95/1/2 98/1/2
f 97/2/2 93/2/2 98/2/2
f 93/1/2 94/1/2 98/1/2
f 90/1/2 97/1/2 99/1/2
f 97/1/2 98/1/2 99/1/2
f 99/1/2 98/1/2 100/1/2
f 98/1/2 95/1/2 101/1/2
f 100/1/2 98/1/2 101/1/2
f 101/1/2 95/1/2 102/1/2
f 100/1/2 101/1/2 103/1/2
f 103/1/2 101/1/2 104/1/2
f 107/1/3 106/1/3 105/1/3
f 108/1/3 106/1/3 107/1/3
f 111/1/3 110/1/3 109/1/3
f 112/1/3 110/1/3 111/1/3
f 117/1/3 114/1/3 113/1/3
f 118/1/3 114/1/3 117/1/3
f 119/1/3 116/1/3 115/1/3
f 120/1/3 116/1/3 119/1/3
f 125/1/3 122/1/3 121/1/3
f 126/1/3 122/1/3 125/1/3
f 127/1/3 124/1/3 123/1/3
f 128/1/3 124/1/3 127/1/3
f 133/1/3 130/1/3 129/1/3
f 134/1/3 130/1/3 133/1/3
f 135/1/3 132/1/3 131/1/3
f 136/1/3 132/1/3 135/1/3
f 141/1/3 138/1/3 137/1/3
f 142/1/3 138/1/3 141/1/3
f 143/1/3 140/1/3 139/1/3
f 144/1/3 140/1/3 143/1/3
f 145/1/4 146/1/4 149/1/4
f 149/1/4 146/1/4 150/1/4
f 147/1/4 148/1/4 151/1/4
f 151/1/4 148/1/4 152/1/4
f 153/1/4 154/1/4 157/1/4
f 157/1/4 154/1/4 158/1/4
f 155/1/4 156/1/4 159/1/4
f 159/1/4 156/1/4 160/1/4
f 161/1/4 162/1/4 165/1/4
f 165/1/4 162/1/4 166/1/4
f 163/1/4 164/1/4 167/1/4
f 167/1/4 164/1/4 168/1/4
f 169/1/4 170/1/4 173/1/4
f 173/1/4 170/1/4 174/1/4
f 171/1/4 172/1/4 175/1/4
f 175/1/4 172/1/4 176/1/4
f 177/1/4 178/1/4 179/1/4
f 179/1/4 178/1/4 180/1/4
f 181/1/4 182/1/4 183/1/4
f 183/1/4 182/1/4 184/1/4
f 189/1/5 186/1/5 185/1/5
f 190/1/5 186/1/5 189/1/5
f 191/1/5 188/1/5 187/1/5
f 192/1/5 188/1/5 191/1/5
f 197/1/5 194/1/5 193/1/5
f 198/1/5 194/1/5 197/1/5
f 199/1/5 196/1/5 195/1/5
f 200/1/5 196/1/5 199/1/5
f 205/1/5 202/1/5 201/1/5
f 206/1/5 202/1/5 205/1/5
f 207/1/5 204/1/5 203/1/5
f 208/1/5 204/1/5 207/1/5
f 213/1/5 210/1/5 209/1/5
f 214/1/5 210/1/5 213/1/5
f 215/1/5 212/1/5 211/1/5
f 216/1/5 212/1/5 215/1/5
f 221/1/5 218/1/5 217/1/5
f 222/1/5 218/1/5 221/1/5
f 223/1/5 220/1/5 219/1/5
f 224/1/5 220/1/5 223/1/5
f 225/1/6 226/1/6 229/1/6
f 229/1/6 226/1/6 230/1/6
f 227/1/6 228/1/6 231/1/6
f 231/1/6 228/1/6 232/1/6
f 233/1/6 234/1/6 237/1/6
f 237/1/6 234/1/6 238/1/6
f 235/1/6 236/1/6 239/1/6
f 239/1/6 236/1/6 240/1/6
f 241/1/6 242/1/6 245/1/6
f 245/1/6 242/1/6 246/1/6
f 243/1/6 244/1/6 247/1/6
f 247/1/6 244/1/6 248/1/6
f 249/1/6 250/1/6 253/1/6
f 253/1/6 250/1/6 254/1/6
f 251/1/6 252/1/6 255/1/6
f 255/1/6 252/1/6 256/1/6
f 257/1/6 258/1/6 261/1/6
f 261/1/6 258/1/6 262/1/6
f 259/1/6 260/1/6 263/1/6
f 263/1/6 260/1/6 264/1/6
