# MagicaVoxel @ Ephtracy

# group
o 

# material
mtllib Ambulance.mtl
usemtl palette

# normals
vn -1 0 0
vn 1 0 0
vn 0 0 1
vn 0 0 -1
vn 0 -1 0
vn 0 1 0

# texcoords
vt 0.0410156 0.5
vt 0.615234 0.5
vt 0.802734 0.5
vt 0.853516 0.5
vt 0.958984 0.5
vt 0.966797 0.5
vt 0.970703 0.5
vt 0.978516 0.5
vt 0.986328 0.5
vt 0.990234 0.5

# verts
v -1.5 0.4 3.4
v -1.5 0.4 2.8
v -1.5 0.4 -3
v -1.5 0.4 -3.4
v -1.5 0.8 3.4
v -1.5 0.8 2.8
v -1.5 0.8 -3
v -1.5 0.8 -3.4
v -1.5 1.2 -0.8
v -1.5 1.2 -1
v -1.5 1.6 -0.8
v -1.5 1.6 -1
v -1.3 0.2 2.8
v -1.3 0.2 2.4
v -1.3 0.2 1.4
v -1.3 0.2 -1.6
v -1.3 0.2 -2.6
v -1.3 0.2 -3
v -1.3 0.4 2.8
v -1.3 0.4 0
v -1.3 0.4 -0.4
v -1.3 0.4 -3
v -1.3 0.6 0.2
v -1.3 0.6 0
v -1.3 0.6 -0.4
v -1.3 0.6 -0.6
v -1.3 0.8 3.2
v -1.3 0.8 2.8
v -1.3 0.8 2.4
v -1.3 0.8 2.2
v -1.3 0.8 1.6
v -1.3 0.8 1.4
v -1.3 0.8 -1.6
v -1.3 0.8 -1.8
v -1.3 0.8 -2.4
v -1.3 0.8 -2.6
v -1.3 0.8 -3
v -1.3 0.8 -3.2
v -1.3 1 3.2
v -1.3 1 3
v -1.3 1 2.8
v -1.3 1 2.2
v -1.3 1 1.6
v -1.3 1 0.2
v -1.3 1 0
v -1.3 1 -0.4
v -1.3 1 -0.6
v -1.3 1 -1.8
v -1.3 1 -2.4
v -1.3 1 -3
v -1.3 1.2 3.2
v -1.3 1.2 3
v -1.3 1.2 2.8
v -1.3 1.2 0
v -1.3 1.2 -0.4
v -1.3 1.2 -0.8
v -1.3 1.2 -1
v -1.3 1.2 -3
v -1.3 1.4 3.2
v -1.3 1.4 1.8
v -1.3 1.4 1.4
v -1.3 1.4 0.6
v -1.3 1.4 0.4
v -1.3 1.4 -0.8
v -1.3 1.4 -1
v -1.3 1.4 -1.2
v -1.3 1.4 -3.2
v -1.3 1.6 -0.8
v -1.3 1.6 -1
v -1.3 2 1.4
v -1.3 2 0.6
v -1.3 2 0.4
v -1.3 2 -1
v -1.3 2.2 1.8
v -1.3 2.2 -1.2
v -1.3 2.4 0.4
v -1.3 2.4 -0.2
v -1.3 2.6 0.4
v -1.3 2.6 -0.2
v -1.1 0.2 2.4
v -1.1 0.2 2.2
v -1.1 0.2 1.4
v -1.1 0.2 -1.6
v -1.1 0.2 -2.6
v -1.1 0.4 2.4
v -1.1 0.4 2.2
v -1.1 0.4 2
v -1.1 0.4 1.8
v -1.1 0.4 1.4
v -1.1 0.4 -1.6
v -1.1 0.4 -1.8
v -1.1 0.4 -2
v -1.1 0.8 2.4
v -1.1 0.8 2.2
v -1.1 0.8 2
v -1.1 0.8 1.8
v -1.1 0.8 1.6
v -1.1 0.8 1.4
v -1.1 0.8 -1.6
v -1.1 0.8 -1.8
v -1.1 0.8 -2
v -1.1 0.8 -2.4
v -1.1 0.8 -2.6
v -1.1 1 2.2
v -1.1 1 1.8
v -1.1 1 1.6
v -1.1 1 -1.8
v -1.1 1 -2.4
v -1.1 2.2 0.4
v -1.1 2.2 -0.2
v -1.1 2.4 0.4
v -1.1 2.4 -0.2
v 0.9 0.8 1
v 0.9 0.8 -0.6
v 0.9 1.4 1
v 0.9 1.4 0.8
v 0.9 1.4 -0.6
v 0.9 2.2 0.4
v 0.9 2.2 -0.2
v 0.9 2.4 0.4
v 0.9 2.4 -0.2
v 1.1 0.2 2.8
v 1.1 0.2 2.4
v 1.1 0.4 2.8
v 1.1 0.4 2.4
v -1.1 0.2 2.8
v -1.1 0.2 2.4
v -1.1 0.4 2.8
v -1.1 0.4 2.4
v -0.9 0.8 1
v -0.9 0.8 -0.6
v -0.9 1.4 1
v -0.9 1.4 0.8
v -0.9 1.4 -0.6
v -0.9 2.2 0.4
v -0.9 2.2 -0.2
v -0.9 2.4 0.4
v -0.9 2.4 -0.2
v 1.1 0.2 2.4
v 1.1 0.2 2.2
v 1.1 0.2 1.4
v 1.1 0.2 -1.6
v 1.1 0.2 -2.6
v 1.1 0.4 2.4
v 1.1 0.4 2.2
v 1.1 0.4 2
v 1.1 0.4 1.8
v 1.1 0.4 1.4
v 1.1 0.4 -1.6
v 1.1 0.4 -1.8
v 1.1 0.4 -2
v 1.1 0.8 2.4
v 1.1 0.8 2.2
v 1.1 0.8 2
v 1.1 0.8 1.8
v 1.1 0.8 1.6
v 1.1 0.8 1.4
v 1.1 0.8 -1.6
v 1.1 0.8 -1.8
v 1.1 0.8 -2
v 1.1 0.8 -2.4
v 1.1 0.8 -2.6
v 1.1 1 2.2
v 1.1 1 1.8
v 1.1 1 1.6
v 1.1 1 -1.8
v 1.1 1 -2.4
v 1.1 2.2 0.4
v 1.1 2.2 -0.2
v 1.1 2.4 0.4
v 1.1 2.4 -0.2
v 1.3 0.2 2.8
v 1.3 0.2 2.4
v 1.3 0.2 1.4
v 1.3 0.2 -1.6
v 1.3 0.2 -2.6
v 1.3 0.2 -3
v 1.3 0.4 2.8
v 1.3 0.4 0
v 1.3 0.4 -0.4
v 1.3 0.4 -3
v 1.3 0.6 0.2
v 1.3 0.6 0
v 1.3 0.6 -0.4
v 1.3 0.6 -0.6
v 1.3 0.8 3.2
v 1.3 0.8 2.8
v 1.3 0.8 2.4
v 1.3 0.8 2.2
v 1.3 0.8 1.6
v 1.3 0.8 1.4
v 1.3 0.8 -1.6
v 1.3 0.8 -1.8
v 1.3 0.8 -2.4
v 1.3 0.8 -2.6
v 1.3 0.8 -3
v 1.3 0.8 -3.2
v 1.3 1 3.2
v 1.3 1 3
v 1.3 1 2.2
v 1.3 1 1.6
v 1.3 1 0.2
v 1.3 1 0
v 1.3 1 -0.4
v 1.3 1 -0.6
v 1.3 1 -1.8
v 1.3 1 -2.4
v 1.3 1 -3
v 1.3 1.2 3.2
v 1.3 1.2 3
v 1.3 1.2 0
v 1.3 1.2 -0.4
v 1.3 1.2 -0.8
v 1.3 1.2 -1
v 1.3 1.2 -3
v 1.3 1.4 3.2
v 1.3 1.4 1.8
v 1.3 1.4 1.6
v 1.3 1.4 0.6
v 1.3 1.4 0.4
v 1.3 1.4 -0.8
v 1.3 1.4 -1
v 1.3 1.4 -1.2
v 1.3 1.4 -3.2
v 1.3 1.6 -0.8
v 1.3 1.6 -1
v 1.3 2 1.6
v 1.3 2 0.6
v 1.3 2 0.4
v 1.3 2 -1
v 1.3 2.2 1.8
v 1.3 2.2 -1.2
v 1.3 2.4 0.4
v 1.3 2.4 -0.2
v 1.3 2.6 0.4
v 1.3 2.6 -0.2
v 1.5 0.4 3.4
v 1.5 0.4 2.8
v 1.5 0.4 -3
v 1.5 0.4 -3.4
v 1.5 0.8 3.4
v 1.5 0.8 2.8
v 1.5 0.8 -3
v 1.5 0.8 -3.4
v 1.5 1.2 -0.8
v 1.5 1.2 -1
v 1.5 1.6 -0.8
v 1.5 1.6 -1
v -1.5 0.4 3.4
v -1.5 0.8 3.4
v 1.5 0.4 3.4
v 1.5 0.8 3.4
v -1.3 0.8 3.2
v -1.3 1 3.2
v -1.3 1.2 3.2
v -1.3 1.4 3.2
v -0.7 1 3.2
v -0.7 1.2 3.2
v -0.5 0.8 3.2
v -0.5 1.2 3.2
v 0.5 0.8 3.2
v 0.5 1.2 3.2
v 0.7 1 3.2
v 0.7 1.2 3.2
v 1.3 0.8 3.2
v 1.3 1 3.2
v 1.3 1.2 3.2
v 1.3 1.4 3.2
v -1.3 0.2 2.8
v -1.3 0.4 2.8
v -1.1 0.2 2.8
v -1.1 0.4 2.8
v 1.1 0.2 2.8
v 1.1 0.4 2.8
v 1.3 0.2 2.8
v 1.3 0.4 2.8
v -1.1 0.2 2.4
v -1.1 0.4 2.4
v 1.1 0.2 2.4
v 1.1 0.4 2.4
v -1.3 1.4 1.8
v -1.3 2.2 1.8
v -1.1 1.4 1.8
v -1.1 2 1.8
v 1.1 1.4 1.8
v 1.1 2 1.8
v 1.3 1.4 1.8
v 1.3 2.2 1.8
v -1.3 0.8 1.6
v -1.3 1 1.6
v -1.1 0.8 1.6
v -1.1 1 1.6
v 1.1 0.8 1.6
v 1.1 1 1.6
v 1.3 0.8 1.6
v 1.3 1 1.6
v -1.3 0.2 1.4
v -1.3 0.8 1.4
v -1.1 0.2 1.4
v -1.1 0.4 1.4
v -1.1 0.8 1.4
v 1.1 0.2 1.4
v 1.1 0.4 1.4
v 1.1 0.8 1.4
v 1.3 0.2 1.4
v 1.3 0.8 1.4
v -1.3 2.4 0.4
v -1.3 2.6 0.4
v -1.1 2.2 0.4
v -1.1 2.4 0.4
v -0.9 2.2 0.4
v -0.9 2.4 0.4
v -0.5 2.4 0.4
v -0.5 2.6 0.4
v 0.5 2.4 0.4
v 0.5 2.6 0.4
v 0.9 2.2 0.4
v 0.9 2.4 0.4
v 1.1 2.2 0.4
v 1.1 2.4 0.4
v 1.3 2.4 0.4
v 1.3 2.6 0.4
v -0.9 0.8 -0.6
v -0.9 1.4 -0.6
v 0.9 0.8 -0.6
v 0.9 1.4 -0.6
v -1.5 1.2 -0.8
v -1.5 1.6 -0.8
v -1.3 1.2 -0.8
v -1.3 1.4 -0.8
v -1.3 1.6 -0.8
v 1.3 1.2 -0.8
v 1.3 1.4 -0.8
v 1.3 1.6 -0.8
v 1.5 1.2 -0.8
v 1.5 1.6 -0.8
v -1.3 0.8 -2.4
v -1.3 1 -2.4
v -1.1 0.8 -2.4
v -1.1 1 -2.4
v 1.1 0.8 -2.4
v 1.1 1 -2.4
v 1.3 0.8 -2.4
v 1.3 1 -2.4
v -1.3 0.2 -2.6
v -1.3 0.8 -2.6
v -1.1 0.2 -2.6
v -1.1 0.8 -2.6
v 1.1 0.2 -2.6
v 1.1 0.8 -2.6
v 1.3 0.2 -2.6
v 1.3 0.8 -2.6
v -1.5 0.4 -3
v -1.5 0.8 -3
v -1.3 0.4 -3
v -1.3 0.8 -3
v 1.3 0.4 -3
v 1.3 0.8 -3
v 1.5 0.4 -3
v 1.5 0.8 -3
v -1.5 0.4 2.8
v -1.5 0.8 2.8
v -1.3 0.4 2.8
v -1.3 0.8 2.8
v 1.3 0.4 2.8
v 1.3 0.8 2.8
v 1.5 0.4 2.8
v 1.5 0.8 2.8
v -1.3 0.2 2.4
v -1.3 0.8 2.4
v -1.1 0.2 2.4
v -1.1 0.4 2.4
v -1.1 0.8 2.4
v 1.1 0.2 2.4
v 1.1 0.4 2.4
v 1.1 0.8 2.4
v 1.3 0.2 2.4
v 1.3 0.8 2.4
v -1.3 0.8 2.2
v -1.3 1 2.2
v -1.1 0.8 2.2
v -1.1 1 2.2
v 1.1 0.8 2.2
v 1.1 1 2.2
v 1.3 0.8 2.2
v 1.3 1 2.2
v -0.9 0.8 1
v -0.9 1.4 1
v -0.5 0.8 1
v -0.5 1.4 1
v 0.5 0.8 1
v 0.5 1.4 1
v 0.9 0.8 1
v 0.9 1.4 1
v -1.3 2.4 -0.2
v -1.3 2.6 -0.2
v -1.1 2.2 -0.2
v -1.1 2.4 -0.2
v -0.9 2.2 -0.2
v -0.9 2.4 -0.2
v -0.5 2.4 -0.2
v -0.5 2.6 -0.2
v 0.5 2.4 -0.2
v 0.5 2.6 -0.2
v 0.9 2.2 -0.2
v 0.9 2.4 -0.2
v 1.1 2.2 -0.2
v 1.1 2.4 -0.2
v 1.3 2.4 -0.2
v 1.3 2.6 -0.2
v -1.5 1.2 -1
v -1.5 1.6 -1
v -1.3 1.2 -1
v -1.3 1.4 -1
v -1.3 1.6 -1
v 1.3 1.2 -1
v 1.3 1.4 -1
v 1.3 1.6 -1
v 1.5 1.2 -1
v 1.5 1.6 -1
v -1.3 1.4 -1.2
v -1.3 2.2 -1.2
v -1.1 1.4 -1.2
v -1.1 2 -1.2
v 1.1 1.4 -1.2
v 1.1 2 -1.2
v 1.3 1.4 -1.2
v 1.3 2.2 -1.2
v -1.3 0.2 -1.6
v -1.3 0.8 -1.6
v -1.1 0.2 -1.6
v -1.1 0.4 -1.6
v -1.1 0.8 -1.6
v 1.1 0.2 -1.6
v 1.1 0.4 -1.6
v 1.1 0.8 -1.6
v 1.3 0.2 -1.6
v 1.3 0.8 -1.6
v -1.3 0.8 -1.8
v -1.3 1 -1.8
v -1.1 0.8 -1.8
v -1.1 1 -1.8
v 1.1 0.8 -1.8
v 1.1 1 -1.8
v 1.3 0.8 -1.8
v 1.3 1 -1.8
v -1.3 0.2 -3
v -1.3 0.4 -3
v -0.9 0.2 -3
v -0.9 0.4 -3
v 0.9 0.2 -3
v 0.9 0.4 -3
v 1.3 0.2 -3
v 1.3 0.4 -3
v -1.3 0.8 -3.2
v -1.3 1.4 -3.2
v -1.1 1 -3.2
v -1.1 1.2 -3.2
v -0.5 1 -3.2
v -0.5 1.2 -3.2
v -0.3 0.8 -3.2
v -0.3 1 -3.2
v 0.3 0.8 -3.2
v 0.3 1 -3.2
v 0.5 1 -3.2
v 0.5 1.2 -3.2
v 1.1 1 -3.2
v 1.1 1.2 -3.2
v 1.3 0.8 -3.2
v 1.3 1.4 -3.2
v -1.5 0.4 -3.4
v -1.5 0.8 -3.4
v 1.5 0.4 -3.4
v 1.5 0.8 -3.4
v -1.3 0.2 2.8
v -1.1 0.2 2.8
v 1.1 0.2 2.8
v 1.3 0.2 2.8
v -1.3 0.2 2.4
v -1.1 0.2 2.4
v 1.1 0.2 2.4
v 1.3 0.2 2.4
v -1.1 0.2 2.2
v 1.1 0.2 2.2
v -1.3 0.2 1.4
v -1.1 0.2 1.4
v 1.1 0.2 1.4
v 1.3 0.2 1.4
v -1.3 0.2 -1.6
v -1.1 0.2 -1.6
v 1.1 0.2 -1.6
v 1.3 0.2 -1.6
v -1.3 0.2 -2.6
v -1.1 0.2 -2.6
v -0.9 0.2 -2.6
v 0.9 0.2 -2.6
v 1.1 0.2 -2.6
v 1.3 0.2 -2.6
v -0.9 0.2 -2.8
v 0.9 0.2 -2.8
v -1.3 0.2 -3
v -0.9 0.2 -3
v 0.9 0.2 -3
v 1.3 0.2 -3
v -1.5 0.4 3.4
v 1.5 0.4 3.4
v -1.5 0.4 2.8
v -1.3 0.4 2.8
v -1.1 0.4 2.8
v 1.1 0.4 2.8
v 1.3 0.4 2.8
v 1.5 0.4 2.8
v -1.1 0.4 2.4
v 1.1 0.4 2.4
v -1.5 0.4 -3
v -1.3 0.4 -3
v -0.9 0.4 -3
v 0.9 0.4 -3
v 1.3 0.4 -3
v 1.5 0.4 -3
v -1.3 0.4 -3.2
v 1.3 0.4 -3.2
v -1.5 0.4 -3.4
v 1.5 0.4 -3.4
v -1.3 0.8 2.4
v -1.1 0.8 2.4
v 1.1 0.8 2.4
v 1.3 0.8 2.4
v -1.3 0.8 2.2
v -1.1 0.8 2.2
v 1.1 0.8 2.2
v 1.3 0.8 2.2
v -1.3 0.8 1.6
v -1.1 0.8 1.6
v 1.1 0.8 1.6
v 1.3 0.8 1.6
v -1.3 0.8 1.4
v -1.1 0.8 1.4
v 1.1 0.8 1.4
v 1.3 0.8 1.4
v -1.3 0.8 -1.6
v -1.1 0.8 -1.6
v 1.1 0.8 -1.6
v 1.3 0.8 -1.6
v -1.3 0.8 -1.8
v -1.1 0.8 -1.8
v 1.1 0.8 -1.8
v 1.3 0.8 -1.8
v -1.3 0.8 -2.4
v -1.1 0.8 -2.4
v 1.1 0.8 -2.4
v 1.3 0.8 -2.4
v -1.3 0.8 -2.6
v -1.1 0.8 -2.6
v 1.1 0.8 -2.6
v 1.3 0.8 -2.6
v -1.3 1 2.2
v -1.1 1 2.2
v 1.1 1 2.2
v 1.3 1 2.2
v -1.1 1 1.8
v 1.1 1 1.8
v -1.3 1 1.6
v -1.1 1 1.6
v 1.1 1 1.6
v 1.3 1 1.6
v -1.3 1 -1.8
v -1.1 1 -1.8
v 1.1 1 -1.8
v 1.3 1 -1.8
v -1.3 1 -2.4
v -1.1 1 -2.4
v 1.1 1 -2.4
v 1.3 1 -2.4
v -1.5 1.2 -0.8
v -1.3 1.2 -0.8
v 1.3 1.2 -0.8
v 1.5 1.2 -0.8
v -1.5 1.2 -1
v -1.3 1.2 -1
v 1.3 1.2 -1
v 1.5 1.2 -1
v -0.9 1.4 1
v -0.5 1.4 1
v 0.5 1.4 1
v 0.9 1.4 1
v -0.9 1.4 0.8
v 0.9 1.4 0.8
v -0.9 1.4 -0.6
v 0.9 1.4 -0.6
v -1.3 2.4 0.4
v -1.1 2.4 0.4
v -0.9 2.4 0.4
v -0.5 2.4 0.4
v 0.5 2.4 0.4
v 0.9 2.4 0.4
v 1.1 2.4 0.4
v 1.3 2.4 0.4
v -1.3 2.4 -0.2
v -1.1 2.4 -0.2
v -0.9 2.4 -0.2
v -0.5 2.4 -0.2
v 0.5 2.4 -0.2
v 0.9 2.4 -0.2
v 1.1 2.4 -0.2
v 1.3 2.4 -0.2
v -1.5 0.8 3.4
v 1.5 0.8 3.4
v -1.3 0.8 3.2
v -0.5 0.8 3.2
v 0.5 0.8 3.2
v 1.3 0.8 3.2
v -1.5 0.8 2.8
v -1.3 0.8 2.8
v 1.3 0.8 2.8
v 1.5 0.8 2.8
v -0.9 0.8 1
v -0.5 0.8 1
v 0.5 0.8 1
v 0.9 0.8 1
v -0.9 0.8 -0.6
v 0.9 0.8 -0.6
v -1.5 0.8 -3
v -1.3 0.8 -3
v 1.3 0.8 -3
v 1.5 0.8 -3
v -1.3 0.8 -3.2
v -0.3 0.8 -3.2
v 0.3 0.8 -3.2
v 1.3 0.8 -3.2
v -1.5 0.8 -3.4
v 1.5 0.8 -3.4
v -1.3 1.4 3.2
v 1.3 1.4 3.2
v -1.3 1.4 1.8
v -1.1 1.4 1.8
v 1.1 1.4 1.8
v 1.3 1.4 1.8
v -1.3 1.4 -1.2
v -1.1 1.4 -1.2
v 1.1 1.4 -1.2
v 1.3 1.4 -1.2
v -1.3 1.4 -3.2
v 1.3 1.4 -3.2
v -1.5 1.6 -0.8
v -1.3 1.6 -0.8
v 1.3 1.6 -0.8
v 1.5 1.6 -0.8
v -1.5 1.6 -1
v -1.3 1.6 -1
v 1.3 1.6 -1
v 1.5 1.6 -1
v -1.3 2.2 1.8
v 1.3 2.2 1.8
v -1.1 2.2 0.4
v -0.9 2.2 0.4
v 0.9 2.2 0.4
v 1.1 2.2 0.4
v -1.1 2.2 -0.2
v -0.9 2.2 -0.2
v 0.9 2.2 -0.2
v 1.1 2.2 -0.2
v -1.3 2.2 -1.2
v 1.3 2.2 -1.2
v -1.3 2.6 0.4
v -0.5 2.6 0.4
v 0.5 2.6 0.4
v 1.3 2.6 0.4
v -1.3 2.6 -0.2
v -0.5 2.6 -0.2
v 0.5 2.6 -0.2
v 1.3 2.6 -0.2

# faces
f 5/8/1 2/8/1 1/8/1
f 6/8/1 2/8/1 5/8/1
f 7/8/1 4/8/1 3/8/1
f 8/8/1 4/8/1 7/8/1
f 11/5/1 10/5/1 9/5/1
f 12/5/1 10/5/1 11/5/1
f 19/2/1 14/2/1 13/2/1
f 20/2/1 16/2/1 15/2/1
f 21/2/1 16/2/1 20/2/1
f 22/2/1 18/2/1 17/2/1
f 23/2/1 20/2/1 15/2/1
f 24/1/1 21/1/1 20/1/1
f 24/2/1 20/2/1 23/2/1
f 25/2/1 16/2/1 21/2/1
f 25/1/1 21/1/1 24/1/1
f 26/2/1 16/2/1 25/2/1
f 28/2/1 14/2/1 19/2/1
f 29/2/1 14/2/1 28/2/1
f 32/2/1 23/2/1 15/2/1
f 33/2/1 16/2/1 26/2/1
f 36/2/1 22/2/1 17/2/1
f 37/2/1 22/2/1 36/2/1
f 39/2/1 30/2/1 29/2/1
f 39/2/1 28/2/1 27/2/1
f 39/2/1 29/2/1 28/2/1
f 40/2/1 30/2/1 39/2/1
f 41/2/1 30/2/1 40/2/1
f 42/2/1 30/2/1 41/2/1
f 43/2/1 32/2/1 31/2/1
f 44/1/1 24/1/1 23/1/1
f 44/1/1 25/1/1 24/1/1
f 44/2/1 32/2/1 43/2/1
f 44/1/1 26/1/1 25/1/1
f 44/2/1 23/2/1 32/2/1
f 45/1/1 26/1/1 44/1/1
f 46/1/1 26/1/1 45/1/1
f 47/2/1 34/2/1 33/2/1
f 47/1/1 26/1/1 46/1/1
f 47/2/1 33/2/1 26/2/1
f 48/2/1 34/2/1 47/2/1
f 49/2/1 37/2/1 36/2/1
f 49/2/1 38/2/1 37/2/1
f 49/2/1 36/2/1 35/2/1
f 50/2/1 38/2/1 49/2/1
f 51/4/1 40/4/1 39/4/1
f 52/2/1 41/2/1 40/2/1
f 52/4/1 40/4/1 51/4/1
f 53/5/1 43/5/1 42/5/1
f 53/2/1 41/2/1 52/2/1
f 53/5/1 42/5/1 41/5/1
f 53/5/1 44/5/1 43/5/1
f 53/5/1 45/5/1 44/5/1
f 54/1/1 46/1/1 45/1/1
f 54/5/1 45/5/1 53/5/1
f 55/5/1 50/5/1 49/5/1
f 55/1/1 46/1/1 54/1/1
f 55/5/1 48/5/1 47/5/1
f 55/5/1 47/5/1 46/5/1
f 55/5/1 49/5/1 48/5/1
f 56/5/1 50/5/1 55/5/1
f 57/5/1 50/5/1 56/5/1
f 58/2/1 38/2/1 50/2/1
f 58/5/1 50/5/1 57/5/1
f 59/2/1 52/2/1 51/2/1
f 59/2/1 54/2/1 53/2/1
f 59/2/1 53/2/1 52/2/1
f 59/2/1 56/2/1 55/2/1
f 59/2/1 55/2/1 54/2/1
f 60/2/1 56/2/1 59/2/1
f 61/2/1 56/2/1 60/2/1
f 62/2/1 56/2/1 61/2/1
f 63/2/1 56/2/1 62/2/1
f 64/2/1 56/2/1 63/2/1
f 65/2/1 58/2/1 57/2/1
f 66/2/1 58/2/1 65/2/1
f 67/2/1 38/2/1 58/2/1
f 67/2/1 58/2/1 66/2/1
f 68/10/1 64/10/1 63/10/1
f 69/5/1 66/5/1 65/5/1
f 70/5/1 61/5/1 60/5/1
f 70/10/1 62/10/1 61/10/1
f 71/5/1 63/5/1 62/5/1
f 71/10/1 62/10/1 70/10/1
f 72/10/1 68/10/1 63/10/1
f 72/5/1 63/5/1 71/5/1
f 72/10/1 69/10/1 68/10/1
f 73/5/1 66/5/1 69/5/1
f 73/10/1 69/10/1 72/10/1
f 74/5/1 71/5/1 70/5/1
f 74/5/1 72/5/1 71/5/1
f 74/5/1 73/5/1 72/5/1
f 74/5/1 70/5/1 60/5/1
f 75/5/1 66/5/1 73/5/1
f 75/5/1 73/5/1 74/5/1
f 78/3/1 77/3/1 76/3/1
f 79/3/1 77/3/1 78/3/1
f 85/6/1 81/6/1 80/6/1
f 86/5/1 82/5/1 81/5/1
f 86/6/1 81/6/1 85/6/1
f 87/5/1 82/5/1 86/5/1
f 88/5/1 82/5/1 87/5/1
f 89/5/1 82/5/1 88/5/1
f 90/5/1 84/5/1 83/5/1
f 91/5/1 84/5/1 90/5/1
f 92/5/1 84/5/1 91/5/1
f 93/5/1 86/5/1 85/5/1
f 93/5/1 87/5/1 86/5/1
f 94/5/1 87/5/1 93/5/1
f 95/9/1 88/9/1 87/9/1
f 95/5/1 87/5/1 94/5/1
f 96/7/1 89/7/1 88/7/1
f 96/9/1 88/9/1 95/9/1
f 97/7/1 89/7/1 96/7/1
f 98/7/1 89/7/1 97/7/1
f 99/7/1 91/7/1 90/7/1
f 100/9/1 92/9/1 91/9/1
f 100/7/1 91/7/1 99/7/1
f 101/5/1 84/5/1 92/5/1
f 101/9/1 92/9/1 100/9/1
f 102/5/1 84/5/1 101/5/1
f 103/5/1 84/5/1 102/5/1
f 104/2/1 95/2/1 94/2/1
f 104/2/1 96/2/1 95/2/1
f 105/9/1 97/9/1 96/9/1
f 105/2/1 96/2/1 104/2/1
f 106/9/1 97/9/1 105/9/1
f 107/2/1 102/2/1 101/2/1
f 107/2/1 101/2/1 100/2/1
f 108/2/1 102/2/1 107/2/1
f 111/6/1 110/6/1 109/6/1
f 112/6/1 110/6/1 111/6/1
f 115/2/1 114/2/1 113/2/1
f 116/2/1 114/2/1 115/2/1
f 117/2/1 114/2/1 116/2/1
f 120/6/1 119/6/1 118/6/1
f 121/6/1 119/6/1 120/6/1
f 124/2/1 123/2/1 122/2/1
f 125/2/1 123/2/1 124/2/1
f 126/2/2 127/2/2 128/2/2
f 128/2/2 127/2/2 129/2/2
f 130/2/2 131/2/2 132/2/2
f 132/2/2 131/2/2 133/2/2
f 133/2/2 131/2/2 134/2/2
f 135/6/2 136/6/2 137/6/2
f 137/6/2 136/6/2 138/6/2
f 139/6/2 140/6/2 144/6/2
f 140/5/2 141/5/2 145/5/2
f 144/6/2 140/6/2 145/6/2
f 145/5/2 141/5/2 146/5/2
f 146/5/2 141/5/2 147/5/2
f 147/5/2 141/5/2 148/5/2
f 142/5/2 143/5/2 149/5/2
f 149/5/2 143/5/2 150/5/2
f 150/5/2 143/5/2 151/5/2
f 144/5/2 145/5/2 152/5/2
f 145/5/2 146/5/2 152/5/2
f 152/5/2 146/5/2 153/5/2
f 146/9/2 147/9/2 154/9/2
f 153/5/2 146/5/2 154/5/2
f 147/7/2 148/7/2 155/7/2
f 154/9/2 147/9/2 155/9/2
f 155/7/2 148/7/2 156/7/2
f 156/7/2 148/7/2 157/7/2
f 149/7/2 150/7/2 158/7/2
f 150/9/2 151/9/2 159/9/2
f 158/7/2 150/7/2 159/7/2
f 151/5/2 143/5/2 160/5/2
f 159/9/2 151/9/2 160/9/2
f 160/5/2 143/5/2 161/5/2
f 161/5/2 143/5/2 162/5/2
f 153/2/2 154/2/2 163/2/2
f 154/2/2 155/2/2 163/2/2
f 155/9/2 156/9/2 164/9/2
f 163/2/2 155/2/2 164/2/2
f 164/9/2 156/9/2 165/9/2
f 160/2/2 161/2/2 166/2/2
f 159/2/2 160/2/2 166/2/2
f 166/2/2 161/2/2 167/2/2
f 168/6/2 169/6/2 170/6/2
f 170/6/2 169/6/2 171/6/2
f 172/2/2 173/2/2 178/2/2
f 174/2/2 175/2/2 179/2/2
f 179/2/2 175/2/2 180/2/2
f 176/2/2 177/2/2 181/2/2
f 174/2/2 179/2/2 182/2/2
f 179/1/2 180/1/2 183/1/2
f 182/2/2 179/2/2 183/2/2
f 180/2/2 175/2/2 184/2/2
f 183/1/2 180/1/2 184/1/2
f 184/2/2 175/2/2 185/2/2
f 178/2/2 173/2/2 187/2/2
f 187/2/2 173/2/2 188/2/2
f 174/2/2 182/2/2 191/2/2
f 185/2/2 175/2/2 192/2/2
f 176/2/2 181/2/2 195/2/2
f 195/2/2 181/2/2 196/2/2
f 188/2/2 189/2/2 198/2/2
f 186/2/2 187/2/2 198/2/2
f 187/2/2 188/2/2 198/2/2
f 198/2/2 189/2/2 199/2/2
f 199/2/2 189/2/2 200/2/2
f 190/2/2 191/2/2 201/2/2
f 182/1/2 183/1/2 202/1/2
f 183/1/2 184/1/2 202/1/2
f 201/2/2 191/2/2 202/2/2
f 184/1/2 185/1/2 202/1/2
f 191/2/2 182/2/2 202/2/2
f 202/1/2 185/1/2 203/1/2
f 203/1/2 185/1/2 204/1/2
f 192/2/2 193/2/2 205/2/2
f 204/1/2 185/1/2 205/1/2
f 185/2/2 192/2/2 205/2/2
f 205/2/2 193/2/2 206/2/2
f 195/2/2 196/2/2 207/2/2
f 196/2/2 197/2/2 207/2/2
f 194/2/2 195/2/2 207/2/2
f 207/2/2 197/2/2 208/2/2
f 198/4/2 199/4/2 209/4/2
f 200/5/2 201/5/2 210/5/2
f 209/4/2 199/4/2 210/4/2
f 199/5/2 200/5/2 210/5/2
f 201/5/2 202/5/2 210/5/2
f 202/5/2 203/5/2 210/5/2
f 203/1/2 204/1/2 211/1/2
f 210/5/2 203/5/2 211/5/2
f 207/5/2 208/5/2 212/5/2
f 211/1/2 204/1/2 212/1/2
f 205/5/2 206/5/2 212/5/2
f 204/5/2 205/5/2 212/5/2
f 206/5/2 207/5/2 212/5/2
f 212/5/2 208/5/2 213/5/2
f 213/5/2 208/5/2 214/5/2
f 208/2/2 197/2/2 215/2/2
f 214/5/2 208/5/2 215/5/2
f 210/2/2 211/2/2 216/2/2
f 209/2/2 210/2/2 216/2/2
f 212/2/2 213/2/2 216/2/2
f 211/2/2 212/2/2 216/2/2
f 216/2/2 213/2/2 217/2/2
f 217/2/2 213/2/2 218/2/2
f 218/2/2 213/2/2 219/2/2
f 219/2/2 213/2/2 220/2/2
f 220/2/2 213/2/2 221/2/2
f 214/2/2 215/2/2 222/2/2
f 222/2/2 215/2/2 223/2/2
f 215/2/2 197/2/2 224/2/2
f 223/2/2 215/2/2 224/2/2
f 220/10/2 221/10/2 225/10/2
f 222/5/2 223/5/2 226/5/2
f 217/5/2 218/5/2 227/5/2
f 218/10/2 219/10/2 227/10/2
f 219/5/2 220/5/2 228/5/2
f 227/10/2 219/10/2 228/10/2
f 220/10/2 225/10/2 229/10/2
f 228/5/2 220/5/2 229/5/2
f 225/10/2 226/10/2 229/10/2
f 226/5/2 223/5/2 230/5/2
f 229/10/2 226/10/2 230/10/2
f 227/5/2 228/5/2 231/5/2
f 228/5/2 229/5/2 231/5/2
f 229/5/2 230/5/2 231/5/2
f 217/5/2 227/5/2 231/5/2
f 230/5/2 223/5/2 232/5/2
f 231/5/2 230/5/2 232/5/2
f 233/4/2 234/4/2 235/4/2
f 235/4/2 234/4/2 236/4/2
f 237/8/2 238/8/2 241/8/2
f 241/8/2 238/8/2 242/8/2
f 239/8/2 240/8/2 243/8/2
f 243/8/2 240/8/2 244/8/2
f 245/5/2 246/5/2 247/5/2
f 247/5/2 246/5/2 248/5/2
f 251/8/3 250/8/3 249/8/3
f 252/8/3 250/8/3 251/8/3
f 257/2/3 254/2/3 253/2/3
f 257/4/3 255/4/3 254/4/3
f 258/2/3 256/2/3 255/2/3
f 258/4/3 255/4/3 257/4/3
f 259/2/3 257/2/3 253/2/3
f 259/2/3 258/2/3 257/2/3
f 260/2/3 256/2/3 258/2/3
f 260/2/3 258/2/3 259/2/3
f 261/6/3 260/6/3 259/6/3
f 262/2/3 256/2/3 260/2/3
f 262/6/3 260/6/3 261/6/3
f 263/2/3 262/2/3 261/2/3
f 264/2/3 256/2/3 262/2/3
f 264/2/3 262/2/3 263/2/3
f 265/2/3 263/2/3 261/2/3
f 266/4/3 264/4/3 263/4/3
f 266/2/3 263/2/3 265/2/3
f 267/2/3 256/2/3 264/2/3
f 267/4/3 264/4/3 266/4/3
f 268/2/3 256/2/3 267/2/3
f 271/2/3 270/2/3 269/2/3
f 272/2/3 270/2/3 271/2/3
f 275/2/3 274/2/3 273/2/3
f 276/2/3 274/2/3 275/2/3
f 279/6/3 278/6/3 277/6/3
f 280/6/3 278/6/3 279/6/3
f 283/5/3 282/5/3 281/5/3
f 284/5/3 282/5/3 283/5/3
f 285/10/3 284/10/3 283/10/3
f 286/5/3 282/5/3 284/5/3
f 286/10/3 284/10/3 285/10/3
f 287/5/3 286/5/3 285/5/3
f 288/5/3 282/5/3 286/5/3
f 288/5/3 286/5/3 287/5/3
f 291/2/3 290/2/3 289/2/3
f 292/2/3 290/2/3 291/2/3
f 295/2/3 294/2/3 293/2/3
f 296/2/3 294/2/3 295/2/3
f 299/2/3 298/2/3 297/2/3
f 300/2/3 298/2/3 299/2/3
f 301/2/3 298/2/3 300/2/3
f 305/2/3 303/2/3 302/2/3
f 305/2/3 304/2/3 303/2/3
f 306/2/3 304/2/3 305/2/3
f 310/3/3 308/3/3 307/3/3
f 311/6/3 310/6/3 309/6/3
f 312/3/3 308/3/3 310/3/3
f 312/6/3 310/6/3 311/6/3
f 313/3/3 308/3/3 312/3/3
f 314/3/3 308/3/3 313/3/3
f 315/7/3 314/7/3 313/7/3
f 316/7/3 314/7/3 315/7/3
f 318/4/3 316/4/3 315/4/3
f 319/6/3 318/6/3 317/6/3
f 320/4/3 316/4/3 318/4/3
f 320/6/3 318/6/3 319/6/3
f 321/4/3 316/4/3 320/4/3
f 322/4/3 316/4/3 321/4/3
f 325/5/3 324/5/3 323/5/3
f 326/5/3 324/5/3 325/5/3
f 329/5/3 328/5/3 327/5/3
f 330/5/3 328/5/3 329/5/3
f 331/5/3 328/5/3 330/5/3
f 335/5/3 333/5/3 332/5/3
f 335/5/3 334/5/3 333/5/3
f 336/5/3 334/5/3 335/5/3
f 339/2/3 338/2/3 337/2/3
f 340/2/3 338/2/3 339/2/3
f 343/2/3 342/2/3 341/2/3
f 344/2/3 342/2/3 343/2/3
f 347/2/3 346/2/3 345/2/3
f 348/2/3 346/2/3 347/2/3
f 351/2/3 350/2/3 349/2/3
f 352/2/3 350/2/3 351/2/3
f 355/8/3 354/8/3 353/8/3
f 356/8/3 354/8/3 355/8/3
f 359/8/3 358/8/3 357/8/3
f 360/8/3 358/8/3 359/8/3
f 361/8/4 362/8/4 363/8/4
f 363/8/4 362/8/4 364/8/4
f 365/8/4 366/8/4 367/8/4
f 367/8/4 366/8/4 368/8/4
f 369/2/4 370/2/4 371/2/4
f 371/2/4 370/2/4 372/2/4
f 372/2/4 370/2/4 373/2/4
f 374/2/4 375/2/4 377/2/4
f 375/2/4 376/2/4 377/2/4
f 377/2/4 376/2/4 378/2/4
f 379/2/4 380/2/4 381/2/4
f 381/2/4 380/2/4 382/2/4
f 383/2/4 384/2/4 385/2/4
f 385/2/4 384/2/4 386/2/4
f 387/5/4 388/5/4 389/5/4
f 389/5/4 388/5/4 390/5/4
f 389/2/4 390/2/4 391/2/4
f 391/2/4 390/2/4 392/2/4
f 391/5/4 392/5/4 393/5/4
f 393/5/4 392/5/4 394/5/4
f 395/3/4 396/3/4 398/3/4
f 397/6/4 398/6/4 399/6/4
f 398/3/4 396/3/4 400/3/4
f 399/6/4 398/6/4 400/6/4
f 400/3/4 396/3/4 401/3/4
f 401/3/4 396/3/4 402/3/4
f 401/7/4 402/7/4 403/7/4
f 403/7/4 402/7/4 404/7/4
f 403/4/4 404/4/4 406/4/4
f 405/6/4 406/6/4 407/6/4
f 406/4/4 404/4/4 408/4/4
f 407/6/4 406/6/4 408/6/4
f 408/4/4 404/4/4 409/4/4
f 409/4/4 404/4/4 410/4/4
f 411/5/4 412/5/4 413/5/4
f 413/5/4 412/5/4 414/5/4
f 414/5/4 412/5/4 415/5/4
f 416/5/4 417/5/4 419/5/4
f 417/5/4 418/5/4 419/5/4
f 419/5/4 418/5/4 420/5/4
f 421/5/4 422/5/4 423/5/4
f 423/5/4 422/5/4 424/5/4
f 423/10/4 424/10/4 425/10/4
f 424/5/4 422/5/4 426/5/4
f 425/10/4 424/10/4 426/10/4
f 425/5/4 426/5/4 427/5/4
f 426/5/4 422/5/4 428/5/4
f 427/5/4 426/5/4 428/5/4
f 429/2/4 430/2/4 431/2/4
f 431/2/4 430/2/4 432/2/4
f 432/2/4 430/2/4 433/2/4
f 434/2/4 435/2/4 437/2/4
f 435/2/4 436/2/4 437/2/4
f 437/2/4 436/2/4 438/2/4
f 439/2/4 440/2/4 441/2/4
f 441/2/4 440/2/4 442/2/4
f 443/2/4 444/2/4 445/2/4
f 445/2/4 444/2/4 446/2/4
f 447/2/4 448/2/4 449/2/4
f 449/2/4 448/2/4 450/2/4
f 449/6/4 450/6/4 451/6/4
f 451/6/4 450/6/4 452/6/4
f 451/2/4 452/2/4 453/2/4
f 453/2/4 452/2/4 454/2/4
f 455/2/4 456/2/4 457/2/4
f 457/2/4 456/2/4 458/2/4
f 455/2/4 457/2/4 459/2/4
f 457/5/4 458/5/4 459/5/4
f 458/2/4 456/2/4 460/2/4
f 459/5/4 458/5/4 460/5/4
f 455/2/4 459/2/4 461/2/4
f 459/2/4 460/2/4 461/2/4
f 461/2/4 460/2/4 462/2/4
f 461/9/4 462/9/4 463/9/4
f 462/2/4 460/2/4 464/2/4
f 463/9/4 462/9/4 464/9/4
f 463/2/4 464/2/4 465/2/4
f 464/2/4 460/2/4 465/2/4
f 460/2/4 456/2/4 466/2/4
f 465/2/4 460/2/4 466/2/4
f 463/2/4 465/2/4 467/2/4
f 465/5/4 466/5/4 467/5/4
f 466/2/4 456/2/4 468/2/4
f 467/5/4 466/5/4 468/5/4
f 463/2/4 467/2/4 469/2/4
f 467/2/4 468/2/4 469/2/4
f 468/2/4 456/2/4 470/2/4
f 469/2/4 468/2/4 470/2/4
f 471/8/4 472/8/4 473/8/4
f 473/8/4 472/8/4 474/8/4
f 479/2/5 476/2/5 475/2/5
f 480/2/5 476/2/5 479/2/5
f 481/2/5 478/2/5 477/2/5
f 482/2/5 478/2/5 481/2/5
f 483/6/5 481/6/5 480/6/5
f 484/6/5 481/6/5 483/6/5
f 486/5/5 484/5/5 483/5/5
f 487/5/5 484/5/5 486/5/5
f 489/2/5 486/2/5 485/2/5
f 490/5/5 487/5/5 486/5/5
f 490/2/5 486/2/5 489/2/5
f 491/2/5 488/2/5 487/2/5
f 491/5/5 487/5/5 490/5/5
f 492/2/5 488/2/5 491/2/5
f 494/5/5 491/5/5 490/5/5
f 495/5/5 491/5/5 494/5/5
f 496/5/5 491/5/5 495/5/5
f 497/5/5 491/5/5 496/5/5
f 499/2/5 494/2/5 493/2/5
f 499/2/5 495/2/5 494/2/5
f 499/5/5 496/5/5 495/5/5
f 500/2/5 498/2/5 497/2/5
f 500/5/5 496/5/5 499/5/5
f 500/2/5 497/2/5 496/2/5
f 501/2/5 499/2/5 493/2/5
f 502/6/5 500/6/5 499/6/5
f 502/2/5 499/2/5 501/2/5
f 503/2/5 498/2/5 500/2/5
f 503/6/5 500/6/5 502/6/5
f 504/2/5 498/2/5 503/2/5
f 507/8/5 506/8/5 505/8/5
f 508/8/5 506/8/5 507/8/5
f 509/8/5 506/8/5 508/8/5
f 510/8/5 506/8/5 509/8/5
f 511/8/5 506/8/5 510/8/5
f 512/8/5 506/8/5 511/8/5
f 513/6/5 510/6/5 509/6/5
f 514/6/5 510/6/5 513/6/5
f 521/6/5 518/6/5 517/6/5
f 521/8/5 516/8/5 515/8/5
f 521/6/5 519/6/5 518/6/5
f 521/6/5 517/6/5 516/6/5
f 522/8/5 520/8/5 519/8/5
f 522/6/5 519/6/5 521/6/5
f 523/8/5 521/8/5 515/8/5
f 523/8/5 522/8/5 521/8/5
f 524/8/5 520/8/5 522/8/5
f 524/8/5 522/8/5 523/8/5
f 529/2/5 526/2/5 525/2/5
f 530/2/5 526/2/5 529/2/5
f 531/2/5 528/2/5 527/2/5
f 532/2/5 528/2/5 531/2/5
f 537/2/5 534/2/5 533/2/5
f 538/2/5 534/2/5 537/2/5
f 539/2/5 536/2/5 535/2/5
f 540/2/5 536/2/5 539/2/5
f 545/2/5 542/2/5 541/2/5
f 546/2/5 542/2/5 545/2/5
f 547/2/5 544/2/5 543/2/5
f 548/2/5 544/2/5 547/2/5
f 553/2/5 550/2/5 549/2/5
f 554/2/5 550/2/5 553/2/5
f 555/2/5 552/2/5 551/2/5
f 556/2/5 552/2/5 555/2/5
f 561/5/5 558/5/5 557/5/5
f 562/5/5 560/5/5 559/5/5
f 563/5/5 561/5/5 557/5/5
f 564/5/5 561/5/5 563/5/5
f 565/5/5 560/5/5 562/5/5
f 566/5/5 560/5/5 565/5/5
f 571/5/5 568/5/5 567/5/5
f 572/5/5 568/5/5 571/5/5
f 573/5/5 570/5/5 569/5/5
f 574/5/5 570/5/5 573/5/5
f 579/5/5 576/5/5 575/5/5
f 580/5/5 576/5/5 579/5/5
f 581/5/5 578/5/5 577/5/5
f 582/5/5 578/5/5 581/5/5
f 587/10/5 584/10/5 583/10/5
f 587/10/5 586/10/5 585/10/5
f 587/10/5 585/10/5 584/10/5
f 588/10/5 586/10/5 587/10/5
f 589/2/5 588/2/5 587/2/5
f 590/2/5 588/2/5 589/2/5
f 599/3/5 592/3/5 591/3/5
f 600/3/5 592/3/5 599/3/5
f 601/3/5 594/3/5 593/3/5
f 602/7/5 595/7/5 594/7/5
f 602/3/5 594/3/5 601/3/5
f 603/4/5 596/4/5 595/4/5
f 603/7/5 595/7/5 602/7/5
f 604/4/5 596/4/5 603/4/5
f 605/4/5 598/4/5 597/4/5
f 606/4/5 598/4/5 605/4/5
f 607/8/6 608/8/6 609/8/6
f 609/8/6 608/8/6 610/8/6
f 610/8/6 608/8/6 611/8/6
f 611/8/6 608/8/6 612/8/6
f 607/8/6 609/8/6 613/8/6
f 613/8/6 609/8/6 614/8/6
f 612/8/6 608/8/6 615/8/6
f 615/8/6 608/8/6 616/8/6
f 617/5/6 618/5/6 621/5/6
f 619/5/6 620/5/6 621/5/6
f 618/5/6 619/5/6 621/5/6
f 621/5/6 620/5/6 622/5/6
f 623/8/6 624/8/6 627/8/6
f 625/8/6 626/8/6 630/8/6
f 628/8/6 629/8/6 631/8/6
f 629/8/6 630/8/6 631/8/6
f 623/8/6 627/8/6 631/8/6
f 627/8/6 628/8/6 631/8/6
f 630/8/6 626/8/6 632/8/6
f 631/8/6 630/8/6 632/8/6
f 633/2/6 634/2/6 635/2/6
f 635/2/6 634/2/6 636/2/6
f 636/2/6 634/2/6 637/2/6
f 637/2/6 634/2/6 638/2/6
f 639/2/6 640/2/6 643/2/6
f 641/2/6 642/2/6 643/2/6
f 640/2/6 641/2/6 643/2/6
f 643/2/6 642/2/6 644/2/6
f 645/5/6 646/5/6 649/5/6
f 649/5/6 646/5/6 650/5/6
f 647/5/6 648/5/6 651/5/6
f 651/5/6 648/5/6 652/5/6
f 653/5/6 654/5/6 655/5/6
f 655/5/6 654/5/6 656/5/6
f 656/5/6 654/5/6 657/5/6
f 657/5/6 654/5/6 658/5/6
f 653/5/6 655/5/6 659/5/6
f 656/5/6 657/5/6 660/5/6
f 660/5/6 657/5/6 661/5/6
f 658/5/6 654/5/6 662/5/6
f 660/5/6 661/5/6 663/5/6
f 661/5/6 662/5/6 663/5/6
f 653/5/6 659/5/6 663/5/6
f 659/5/6 660/5/6 663/5/6
f 662/5/6 654/5/6 664/5/6
f 663/5/6 662/5/6 664/5/6
f 665/3/6 666/3/6 669/3/6
f 666/7/6 667/7/6 670/7/6
f 669/3/6 666/3/6 670/3/6
f 667/4/6 668/4/6 671/4/6
f 670/7/6 667/7/6 671/7/6
f 671/4/6 668/4/6 672/4/6
