# MagicaVoxel @ Ephtracy

# group
o 

# material
mtllib LeftUpperLeg.mtl
usemtl palette

# normals
vn -1 0 0
vn 1 0 0
vn 0 0 1
vn 0 0 -1
vn 0 -1 0
vn 0 1 0

# texcoords
vt 0.00195313 0.5
vt 0.0371094 0.5
vt 0.662109 0.5

# verts
v -2 0.2 2
v -2 0.2 -2
v -2 1.1 2
v -2 1.1 -2
v -1.9 0 1.9
v -1.9 0 -1.9
v -1.9 0.2 1.9
v -1.9 0.2 -1.9
v -1.8 1.1 1.8
v -1.8 1.1 -1.8
v -1.8 9.3 1.8
v -1.8 9.3 -1.8
v 1.8 1.1 1.8
v 1.8 1.1 -1.8
v 1.8 9.3 1.8
v 1.8 9.3 -1.8
v 1.9 0 1.9
v 1.9 0 -1.9
v 1.9 0.2 1.9
v 1.9 0.2 -1.9
v 2 0.2 2
v 2 0.2 -2
v 2 1.1 2
v 2 1.1 -2
v -2 0.2 2
v -2 1.1 2
v 2 0.2 2
v 2 1.1 2
v -1.9 0 1.9
v -1.9 0.2 1.9
v 1.9 0 1.9
v 1.9 0.2 1.9
v -1.8 1.1 1.8
v -1.8 9.3 1.8
v 1.8 1.1 1.8
v 1.8 9.3 1.8
v -1.8 1.1 -1.8
v -1.8 9.3 -1.8
v 1.8 1.1 -1.8
v 1.8 9.3 -1.8
v -1.9 0 -1.9
v -1.9 0.2 -1.9
v 1.9 0 -1.9
v 1.9 0.2 -1.9
v -2 0.2 -2
v -2 1.1 -2
v 2 0.2 -2
v 2 1.1 -2
v -1.9 0 1.9
v 1.9 0 1.9
v -1.2 0 1.2
v 1.2 0 1.2
v -1.2 0 -1.2
v 1.2 0 -1.2
v -1.9 0 -1.9
v 1.9 0 -1.9
v -2 0.2 2
v 2 0.2 2
v -1.9 0.2 1.9
v 1.9 0.2 1.9
v -1.9 0.2 -1.9
v 1.9 0.2 -1.9
v -2 0.2 -2
v 2 0.2 -2
v -2 1.1 2
v 2 1.1 2
v -1.8 1.1 1.8
v 1.8 1.1 1.8
v -1.8 1.1 -1.8
v 1.8 1.1 -1.8
v -2 1.1 -2
v 2 1.1 -2
v -1.8 9.3 1.8
v 1.8 9.3 1.8
v -1.8 9.3 -1.8
v 1.8 9.3 -1.8

# faces
f 3/1/1 2/1/1 1/1/1
f 4/1/1 2/1/1 3/1/1
f 7/1/1 6/1/1 5/1/1
f 8/1/1 6/1/1 7/1/1
f 11/3/1 10/3/1 9/3/1
f 12/3/1 10/3/1 11/3/1
f 13/3/2 14/3/2 15/3/2
f 15/3/2 14/3/2 16/3/2
f 17/1/2 18/1/2 19/1/2
f 19/1/2 18/1/2 20/1/2
f 21/1/2 22/1/2 23/1/2
f 23/1/2 22/1/2 24/1/2
f 27/1/3 26/1/3 25/1/3
f 28/1/3 26/1/3 27/1/3
f 31/1/3 30/1/3 29/1/3
f 32/1/3 30/1/3 31/1/3
f 35/3/3 34/3/3 33/3/3
f 36/3/3 34/3/3 35/3/3
f 37/3/4 38/3/4 39/3/4
f 39/3/4 38/3/4 40/3/4
f 41/1/4 42/1/4 43/1/4
f 43/1/4 42/1/4 44/1/4
f 45/1/4 46/1/4 47/1/4
f 47/1/4 46/1/4 48/1/4
f 51/1/5 50/1/5 49/1/5
f 52/1/5 50/1/5 51/1/5
f 53/1/5 51/1/5 49/1/5
f 53/2/5 52/2/5 51/2/5
f 54/1/5 50/1/5 52/1/5
f 54/2/5 52/2/5 53/2/5
f 55/1/5 53/1/5 49/1/5
f 55/1/5 54/1/5 53/1/5
f 56/1/5 50/1/5 54/1/5
f 56/1/5 54/1/5 55/1/5
f 59/1/5 58/1/5 57/1/5
f 60/1/5 58/1/5 59/1/5
f 61/1/5 59/1/5 57/1/5
f 62/1/5 58/1/5 60/1/5
f 63/1/5 61/1/5 57/1/5
f 63/1/5 62/1/5 61/1/5
f 64/1/5 58/1/5 62/1/5
f 64/1/5 62/1/5 63/1/5
f 65/1/6 66/1/6 67/1/6
f 67/1/6 66/1/6 68/1/6
f 65/1/6 67/1/6 69/1/6
f 68/1/6 66/1/6 70/1/6
f 65/1/6 69/1/6 71/1/6
f 69/1/6 70/1/6 71/1/6
f 70/1/6 66/1/6 72/1/6
f 71/1/6 70/1/6 72/1/6
f 73/3/6 74/3/6 75/3/6
f 75/3/6 74/3/6 76/3/6
