# MagicaVoxel @ Ephtracy

# group
o 

# material
mtllib RightLowerLeg.mtl
usemtl palette

# normals
vn -1 0 0
vn 1 0 0
vn 0 0 1
vn 0 0 -1
vn 0 -1 0
vn 0 1 0

# texcoords
vt 0.00976563 0.5
vt 0.0136719 0.5
vt 0.0332031 0.5
vt 0.0371094 0.5

# verts
v -0.9 0 3.1
v -0.9 0 -0.9
v -0.9 0.4 3.1
v -0.9 0.4 1.8
v -0.9 0.4 1.7
v -0.9 0.4 -0.9
v -0.9 0.8 1.8
v -0.9 0.8 1.7
v -0.8 0.4 2.9
v -0.8 0.4 2.5
v -0.8 0.4 2.4
v -0.8 0.4 1.8
v -0.8 0.4 1.7
v -0.8 0.4 -0.8
v -0.8 0.7 2.9
v -0.8 0.7 2.5
v -0.8 0.7 2.4
v -0.8 0.7 1.9
v -0.8 0.7 1.8
v -0.8 0.7 1.7
v -0.8 0.7 -0.8
v -0.8 0.8 1.9
v -0.8 0.8 1.8
v -0.7 0.7 2.1
v -0.7 0.7 1.9
v -0.7 0.7 0.7
v -0.7 0.7 -0.7
v -0.7 0.8 2.1
v -0.7 0.8 1.9
v -0.7 11 0.7
v -0.7 11 -0.7
v -0.6 0.7 2.2
v -0.6 0.7 2.1
v -0.6 0.8 2.2
v -0.6 0.8 2.1
v -0.5 0.7 2.3
v -0.5 0.7 2.2
v -0.5 0.8 2.3
v -0.5 0.8 2.2
v -0.4 0.4 3
v -0.4 0.4 2.9
v -0.4 0.7 2.9
v -0.4 0.7 2.5
v -0.4 0.7 2.4
v -0.4 0.7 2.3
v -0.4 0.8 3
v -0.4 0.8 2.3
v -0.2 0.7 2.2
v -0.2 0.7 2.1
v -0.2 0.8 2.2
v -0.2 0.8 2.1
v 0 0.7 2.1
v 0 0.7 2
v 0 0.8 2.1
v 0 0.8 2
v 0.2 0.7 2
v 0.2 0.7 1.9
v 0.2 0.8 2
v 0.2 0.8 1.9
v 0.4 0.7 1.9
v 0.4 0.7 1.8
v 0.4 0.8 1.9
v 0.4 0.8 1.8
v -0.7 0.7 1.9
v -0.7 0.7 1.8
v -0.7 0.8 1.9
v -0.7 0.8 1.8
v -0.6 0.7 2.1
v -0.6 0.7 1.9
v -0.6 0.8 2.1
v -0.6 0.8 1.9
v -0.5 0.7 2.2
v -0.5 0.7 2.1
v -0.5 0.8 2.2
v -0.5 0.8 2.1
v -0.3 0.4 3
v -0.3 0.4 2.9
v -0.3 0.7 2.9
v -0.3 0.7 2.5
v -0.3 0.7 2.4
v -0.3 0.7 2.3
v -0.3 0.8 3
v -0.3 0.8 2.3
v -0.2 0.7 2.3
v -0.2 0.7 2.2
v -0.2 0.8 2.3
v -0.2 0.8 2.2
v 0 0.7 2.2
v 0 0.7 2.1
v 0 0.8 2.2
v 0 0.8 2.1
v 0.2 0.7 2.1
v 0.2 0.7 2
v 0.2 0.8 2.1
v 0.2 0.8 2
v 0.4 0.7 2
v 0.4 0.7 1.9
v 0.4 0.8 2
v 0.4 0.8 1.9
v 0.6 0.7 1.9
v 0.6 0.7 1.8
v 0.6 0.8 1.9
v 0.6 0.8 1.8
v 0.7 0.7 0.7
v 0.7 0.7 -0.7
v 0.7 11 0.7
v 0.7 11 -0.7
v 0.8 0.4 2.9
v 0.8 0.4 2.5
v 0.8 0.4 2.4
v 0.8 0.4 1.8
v 0.8 0.4 1.7
v 0.8 0.4 -0.8
v 0.8 0.7 2.9
v 0.8 0.7 2.5
v 0.8 0.7 2.4
v 0.8 0.7 1.8
v 0.8 0.7 1.7
v 0.8 0.7 -0.8
v 0.9 0 3.1
v 0.9 0 -0.9
v 0.9 0.4 3.1
v 0.9 0.4 1.8
v 0.9 0.4 1.7
v 0.9 0.4 -0.9
v 0.9 0.8 1.8
v 0.9 0.8 1.7
v -0.9 0 3.1
v -0.9 0.4 3.1
v 0.9 0 3.1
v 0.9 0.4 3.1
v -0.4 0.4 3
v -0.4 0.8 3
v -0.3 0.4 3
v -0.3 0.8 3
v -0.8 0.4 2.9
v -0.8 0.7 2.9
v -0.4 0.4 2.9
v -0.4 0.7 2.9
v -0.3 0.4 2.9
v -0.3 0.7 2.9
v -0.1 0.4 2.9
v -0.1 0.7 2.9
v 0 0.4 2.9
v 0 0.7 2.9
v 0.2 0.4 2.9
v 0.2 0.7 2.9
v 0.3 0.4 2.9
v 0.3 0.7 2.9
v 0.5 0.4 2.9
v 0.5 0.7 2.9
v 0.6 0.4 2.9
v 0.6 0.7 2.9
v 0.8 0.4 2.9
v 0.8 0.7 2.9
v -0.5 0.7 2.3
v -0.5 0.8 2.3
v -0.4 0.7 2.3
v -0.4 0.8 2.3
v -0.3 0.7 2.3
v -0.3 0.8 2.3
v -0.2 0.7 2.3
v -0.2 0.8 2.3
v -0.6 0.7 2.2
v -0.6 0.8 2.2
v -0.5 0.7 2.2
v -0.5 0.8 2.2
v -0.2 0.7 2.2
v -0.2 0.8 2.2
v 0 0.7 2.2
v 0 0.8 2.2
v -0.7 0.7 2.1
v -0.7 0.8 2.1
v -0.6 0.7 2.1
v -0.6 0.8 2.1
v 0 0.7 2.1
v 0 0.8 2.1
v 0.2 0.7 2.1
v 0.2 0.8 2.1
v 0.2 0.7 2
v 0.2 0.8 2
v 0.4 0.7 2
v 0.4 0.8 2
v -0.8 0.7 1.9
v -0.8 0.8 1.9
v -0.7 0.7 1.9
v -0.7 0.8 1.9
v 0.4 0.7 1.9
v 0.4 0.8 1.9
v 0.6 0.7 1.9
v 0.6 0.8 1.9
v -0.9 0.4 1.8
v -0.9 0.8 1.8
v -0.8 0.4 1.8
v -0.8 0.7 1.8
v -0.8 0.8 1.8
v -0.7 0.7 1.8
v -0.7 0.8 1.8
v 0.4 0.7 1.8
v 0.4 0.8 1.8
v 0.6 0.7 1.8
v 0.6 0.8 1.8
v 0.8 0.4 1.8
v 0.8 0.7 1.8
v 0.9 0.4 1.8
v 0.9 0.8 1.8
v -0.7 0.7 0.7
v -0.7 11 0.7
v 0.7 0.7 0.7
v 0.7 11 0.7
v -0.5 0.7 2.2
v -0.5 0.8 2.2
v -0.2 0.7 2.2
v -0.2 0.8 2.2
v -0.6 0.7 2.1
v -0.6 0.8 2.1
v -0.5 0.7 2.1
v -0.5 0.8 2.1
v -0.2 0.7 2.1
v -0.2 0.8 2.1
v 0 0.7 2.1
v 0 0.8 2.1
v 0 0.7 2
v 0 0.8 2
v 0.2 0.7 2
v 0.2 0.8 2
v -0.7 0.7 1.9
v -0.7 0.8 1.9
v -0.6 0.7 1.9
v -0.6 0.8 1.9
v 0.2 0.7 1.9
v 0.2 0.8 1.9
v 0.4 0.7 1.9
v 0.4 0.8 1.9
v -0.9 0.4 1.7
v -0.9 0.8 1.7
v -0.8 0.4 1.7
v -0.8 0.7 1.7
v 0.8 0.4 1.7
v 0.8 0.7 1.7
v 0.9 0.4 1.7
v 0.9 0.8 1.7
v -0.7 0.7 -0.7
v -0.7 11 -0.7
v 0.7 0.7 -0.7
v 0.7 11 -0.7
v -0.8 0.4 -0.8
v -0.8 0.7 -0.8
v 0.8 0.4 -0.8
v 0.8 0.7 -0.8
v -0.9 0 -0.9
v -0.9 0.4 -0.9
v 0.9 0 -0.9
v 0.9 0.4 -0.9
v -0.9 0 3.1
v 0.9 0 3.1
v -0.9 0 -0.9
v 0.9 0 -0.9
v -0.9 0.4 3.1
v 0.9 0.4 3.1
v -0.4 0.4 3
v -0.3 0.4 3
v -0.8 0.4 2.9
v -0.4 0.4 2.9
v -0.3 0.4 2.9
v -0.1 0.4 2.9
v 0 0.4 2.9
v 0.2 0.4 2.9
v 0.3 0.4 2.9
v 0.5 0.4 2.9
v 0.6 0.4 2.9
v 0.8 0.4 2.9
v -0.8 0.4 2.5
v 0.8 0.4 2.5
v -0.8 0.4 2.4
v 0.8 0.4 2.4
v -0.9 0.4 1.8
v -0.8 0.4 1.8
v 0.8 0.4 1.8
v 0.9 0.4 1.8
v -0.9 0.4 1.7
v -0.8 0.4 1.7
v 0.8 0.4 1.7
v 0.9 0.4 1.7
v -0.8 0.4 -0.8
v 0.8 0.4 -0.8
v -0.9 0.4 -0.9
v 0.9 0.4 -0.9
v -0.8 0.7 2.9
v -0.4 0.7 2.9
v -0.3 0.7 2.9
v -0.1 0.7 2.9
v 0 0.7 2.9
v 0.2 0.7 2.9
v 0.3 0.7 2.9
v 0.5 0.7 2.9
v 0.6 0.7 2.9
v 0.8 0.7 2.9
v -0.8 0.7 2.5
v -0.4 0.7 2.5
v -0.3 0.7 2.5
v -0.1 0.7 2.5
v 0 0.7 2.5
v 0.2 0.7 2.5
v 0.3 0.7 2.5
v 0.5 0.7 2.5
v 0.6 0.7 2.5
v 0.8 0.7 2.5
v -0.8 0.7 2.4
v -0.4 0.7 2.4
v -0.3 0.7 2.4
v 0.8 0.7 2.4
v -0.5 0.7 2.3
v -0.4 0.7 2.3
v -0.3 0.7 2.3
v -0.2 0.7 2.3
v -0.6 0.7 2.2
v -0.5 0.7 2.2
v -0.2 0.7 2.2
v 0 0.7 2.2
v -0.7 0.7 2.1
v -0.6 0.7 2.1
v -0.5 0.7 2.1
v -0.2 0.7 2.1
v 0 0.7 2.1
v 0.2 0.7 2.1
v 0 0.7 2
v 0.2 0.7 2
v 0.4 0.7 2
v -0.8 0.7 1.9
v -0.7 0.7 1.9
v -0.6 0.7 1.9
v 0.2 0.7 1.9
v 0.4 0.7 1.9
v 0.6 0.7 1.9
v -0.7 0.7 1.8
v 0.4 0.7 1.8
v 0.6 0.7 1.8
v 0.8 0.7 1.8
v -0.8 0.7 1.7
v 0.8 0.7 1.7
v -0.7 0.7 0.7
v 0.7 0.7 0.7
v -0.7 0.7 -0.7
v 0.7 0.7 -0.7
v -0.8 0.7 -0.8
v 0.8 0.7 -0.8
v -0.4 0.8 3
v -0.3 0.8 3
v -0.5 0.8 2.3
v -0.4 0.8 2.3
v -0.3 0.8 2.3
v -0.2 0.8 2.3
v -0.6 0.8 2.2
v -0.5 0.8 2.2
v -0.2 0.8 2.2
v 0 0.8 2.2
v -0.7 0.8 2.1
v -0.6 0.8 2.1
v -0.5 0.8 2.1
v -0.2 0.8 2.1
v 0 0.8 2.1
v 0.2 0.8 2.1
v 0 0.8 2
v 0.2 0.8 2
v 0.4 0.8 2
v -0.8 0.8 1.9
v -0.7 0.8 1.9
v -0.6 0.8 1.9
v 0.2 0.8 1.9
v 0.4 0.8 1.9
v 0.6 0.8 1.9
v -0.9 0.8 1.8
v -0.8 0.8 1.8
v -0.7 0.8 1.8
v 0.4 0.8 1.8
v 0.6 0.8 1.8
v 0.9 0.8 1.8
v -0.9 0.8 1.7
v 0.9 0.8 1.7
v -0.7 11 0.7
v 0.7 11 0.7
v -0.7 11 -0.7
v 0.7 11 -0.7

# faces
f 3/3/1 2/3/1 1/3/1
f 4/3/1 2/3/1 3/3/1
f 5/3/1 2/3/1 4/3/1
f 6/3/1 2/3/1 5/3/1
f 7/2/1 5/2/1 4/2/1
f 8/2/1 5/2/1 7/2/1
f 15/4/1 10/4/1 9/4/1
f 16/1/1 11/1/1 10/1/1
f 16/4/1 10/4/1 15/4/1
f 17/4/1 12/4/1 11/4/1
f 17/1/1 11/1/1 16/1/1
f 18/4/1 12/4/1 17/4/1
f 19/4/1 12/4/1 18/4/1
f 20/4/1 14/4/1 13/4/1
f 21/4/1 14/4/1 20/4/1
f 22/2/1 19/2/1 18/2/1
f 23/2/1 19/2/1 22/2/1
f 28/2/1 25/2/1 24/2/1
f 29/2/1 25/2/1 28/2/1
f 30/4/1 27/4/1 26/4/1
f 31/4/1 27/4/1 30/4/1
f 34/2/1 33/2/1 32/2/1
f 35/2/1 33/2/1 34/2/1
f 38/2/1 37/2/1 36/2/1
f 39/2/1 37/2/1 38/2/1
f 42/2/1 41/2/1 40/2/1
f 46/2/1 42/2/1 40/2/1
f 46/2/1 45/2/1 44/2/1
f 46/2/1 44/2/1 43/2/1
f 46/2/1 43/2/1 42/2/1
f 47/2/1 45/2/1 46/2/1
f 50/2/1 49/2/1 48/2/1
f 51/2/1 49/2/1 50/2/1
f 54/2/1 53/2/1 52/2/1
f 55/2/1 53/2/1 54/2/1
f 58/2/1 57/2/1 56/2/1
f 59/2/1 57/2/1 58/2/1
f 62/2/1 61/2/1 60/2/1
f 63/2/1 61/2/1 62/2/1
f 64/2/2 65/2/2 66/2/2
f 66/2/2 65/2/2 67/2/2
f 68/2/2 69/2/2 70/2/2
f 70/2/2 69/2/2 71/2/2
f 72/2/2 73/2/2 74/2/2
f 74/2/2 73/2/2 75/2/2
f 76/2/2 77/2/2 78/2/2
f 76/2/2 78/2/2 82/2/2
f 80/2/2 81/2/2 82/2/2
f 79/2/2 80/2/2 82/2/2
f 78/2/2 79/2/2 82/2/2
f 82/2/2 81/2/2 83/2/2
f 84/2/2 85/2/2 86/2/2
f 86/2/2 85/2/2 87/2/2
f 88/2/2 89/2/2 90/2/2
f 90/2/2 89/2/2 91/2/2
f 92/2/2 93/2/2 94/2/2
f 94/2/2 93/2/2 95/2/2
f 96/2/2 97/2/2 98/2/2
f 98/2/2 97/2/2 99/2/2
f 100/2/2 101/2/2 102/2/2
f 102/2/2 101/2/2 103/2/2
f 104/4/2 105/4/2 106/4/2
f 106/4/2 105/4/2 107/4/2
f 108/4/2 109/4/2 114/4/2
f 109/1/2 110/1/2 115/1/2
f 114/4/2 109/4/2 115/4/2
f 110/4/2 111/4/2 116/4/2
f 115/1/2 110/1/2 116/1/2
f 116/4/2 111/4/2 117/4/2
f 112/4/2 113/4/2 118/4/2
f 118/4/2 113/4/2 119/4/2
f 120/3/2 121/3/2 122/3/2
f 122/3/2 121/3/2 123/3/2
f 123/3/2 121/3/2 124/3/2
f 124/3/2 121/3/2 125/3/2
f 123/2/2 124/2/2 126/2/2
f 126/2/2 124/2/2 127/2/2
f 130/3/3 129/3/3 128/3/3
f 131/3/3 129/3/3 130/3/3
f 134/2/3 133/2/3 132/2/3
f 135/2/3 133/2/3 134/2/3
f 138/4/3 137/4/3 136/4/3
f 139/4/3 137/4/3 138/4/3
f 142/4/3 141/4/3 140/4/3
f 143/4/3 141/4/3 142/4/3
f 144/1/3 143/1/3 142/1/3
f 145/1/3 143/1/3 144/1/3
f 146/4/3 145/4/3 144/4/3
f 147/4/3 145/4/3 146/4/3
f 148/1/3 147/1/3 146/1/3
f 149/1/3 147/1/3 148/1/3
f 150/4/3 149/4/3 148/4/3
f 151/4/3 149/4/3 150/4/3
f 152/1/3 151/1/3 150/1/3
f 153/1/3 151/1/3 152/1/3
f 154/4/3 153/4/3 152/4/3
f 155/4/3 153/4/3 154/4/3
f 158/2/3 157/2/3 156/2/3
f 159/2/3 157/2/3 158/2/3
f 162/2/3 161/2/3 160/2/3
f 163/2/3 161/2/3 162/2/3
f 166/2/3 165/2/3 164/2/3
f 167/2/3 165/2/3 166/2/3
f 170/2/3 169/2/3 168/2/3
f 171/2/3 169/2/3 170/2/3
f 174/2/3 173/2/3 172/2/3
f 175/2/3 173/2/3 174/2/3
f 178/2/3 177/2/3 176/2/3
f 179/2/3 177/2/3 178/2/3
f 182/2/3 181/2/3 180/2/3
f 183/2/3 181/2/3 182/2/3
f 186/2/3 185/2/3 184/2/3
f 187/2/3 185/2/3 186/2/3
f 190/2/3 189/2/3 188/2/3
f 191/2/3 189/2/3 190/2/3
f 194/2/3 193/2/3 192/2/3
f 195/2/3 193/2/3 194/2/3
f 196/2/3 193/2/3 195/2/3
f 199/2/3 198/2/3 197/2/3
f 200/2/3 198/2/3 199/2/3
f 204/2/3 202/2/3 201/2/3
f 205/2/3 204/2/3 203/2/3
f 206/2/3 202/2/3 204/2/3
f 206/2/3 204/2/3 205/2/3
f 209/4/3 208/4/3 207/4/3
f 210/4/3 208/4/3 209/4/3
f 211/2/4 212/2/4 213/2/4
f 213/2/4 212/2/4 214/2/4
f 215/2/4 216/2/4 217/2/4
f 217/2/4 216/2/4 218/2/4
f 219/2/4 220/2/4 221/2/4
f 221/2/4 220/2/4 222/2/4
f 223/2/4 224/2/4 225/2/4
f 225/2/4 224/2/4 226/2/4
f 227/2/4 228/2/4 229/2/4
f 229/2/4 228/2/4 230/2/4
f 231/2/4 232/2/4 233/2/4
f 233/2/4 232/2/4 234/2/4
f 235/2/4 236/2/4 237/2/4
f 237/2/4 236/2/4 238/2/4
f 238/2/4 236/2/4 240/2/4
f 239/2/4 240/2/4 241/2/4
f 240/2/4 236/2/4 242/2/4
f 241/2/4 240/2/4 242/2/4
f 243/4/4 244/4/4 245/4/4
f 245/4/4 244/4/4 246/4/4
f 247/4/4 248/4/4 249/4/4
f 249/4/4 248/4/4 250/4/4
f 251/3/4 252/3/4 253/3/4
f 253/3/4 252/3/4 254/3/4
f 257/3/5 256/3/5 255/3/5
f 258/3/5 256/3/5 257/3/5
f 259/3/6 260/3/6 261/3/6
f 261/3/6 260/3/6 262/3/6
f 259/3/6 261/3/6 263/3/6
f 263/3/6 261/3/6 264/3/6
f 262/3/6 260/3/6 265/3/6
f 265/3/6 260/3/6 266/3/6
f 266/3/6 260/3/6 267/3/6
f 267/3/6 260/3/6 268/3/6
f 268/3/6 260/3/6 269/3/6
f 269/3/6 260/3/6 270/3/6
f 270/3/6 260/3/6 271/3/6
f 271/3/6 260/3/6 272/3/6
f 259/3/6 263/3/6 273/3/6
f 272/3/6 260/3/6 274/3/6
f 259/3/6 273/3/6 275/3/6
f 274/3/6 260/3/6 276/3/6
f 259/3/6 275/3/6 277/3/6
f 277/3/6 275/3/6 278/3/6
f 276/3/6 260/3/6 279/3/6
f 279/3/6 260/3/6 280/3/6
f 281/3/6 282/3/6 285/3/6
f 283/3/6 284/3/6 286/3/6
f 281/3/6 285/3/6 287/3/6
f 285/3/6 286/3/6 287/3/6
f 286/3/6 284/3/6 288/3/6
f 287/3/6 286/3/6 288/3/6
f 289/4/6 290/4/6 299/4/6
f 299/4/6 290/4/6 300/4/6
f 291/4/6 292/4/6 301/4/6
f 292/1/6 293/1/6 302/1/6
f 301/4/6 292/4/6 302/4/6
f 293/4/6 294/4/6 303/4/6
f 302/1/6 293/1/6 303/1/6
f 294/1/6 295/1/6 304/1/6
f 303/4/6 294/4/6 304/4/6
f 295/4/6 296/4/6 305/4/6
f 304/1/6 295/1/6 305/1/6
f 296/1/6 297/1/6 306/1/6
f 305/4/6 296/4/6 306/4/6
f 297/4/6 298/4/6 307/4/6
f 306/1/6 297/1/6 307/1/6
f 307/4/6 298/4/6 308/4/6
f 299/1/6 300/1/6 309/1/6
f 309/1/6 300/1/6 310/1/6
f 305/1/6 306/1/6 311/1/6
f 301/1/6 302/1/6 311/1/6
f 302/1/6 303/1/6 311/1/6
f 307/1/6 308/1/6 311/1/6
f 306/1/6 307/1/6 311/1/6
f 303/1/6 304/1/6 311/1/6
f 304/1/6 305/1/6 311/1/6
f 311/1/6 308/1/6 312/1/6
f 309/4/6 310/4/6 313/4/6
f 313/4/6 310/4/6 314/4/6
f 311/4/6 312/4/6 315/4/6
f 315/4/6 312/4/6 316/4/6
f 309/4/6 313/4/6 317/4/6
f 317/4/6 313/4/6 318/4/6
f 316/4/6 312/4/6 319/4/6
f 319/4/6 312/4/6 320/4/6
f 309/4/6 317/4/6 321/4/6
f 321/4/6 317/4/6 322/4/6
f 318/4/6 319/4/6 323/4/6
f 323/4/6 319/4/6 324/4/6
f 320/4/6 312/4/6 325/4/6
f 325/4/6 312/4/6 326/4/6
f 323/4/6 324/4/6 327/4/6
f 324/4/6 325/4/6 327/4/6
f 322/4/6 323/4/6 327/4/6
f 326/4/6 312/4/6 328/4/6
f 328/4/6 312/4/6 329/4/6
f 309/4/6 321/4/6 330/4/6
f 330/4/6 321/4/6 331/4/6
f 322/4/6 327/4/6 332/4/6
f 327/4/6 328/4/6 332/4/6
f 332/4/6 328/4/6 333/4/6
f 329/4/6 312/4/6 334/4/6
f 334/4/6 312/4/6 335/4/6
f 332/4/6 333/4/6 336/4/6
f 333/4/6 334/4/6 336/4/6
f 331/4/6 332/4/6 336/4/6
f 336/4/6 334/4/6 337/4/6
f 335/4/6 312/4/6 338/4/6
f 338/4/6 312/4/6 339/4/6
f 340/4/6 341/4/6 342/4/6
f 342/4/6 341/4/6 343/4/6
f 340/4/6 342/4/6 344/4/6
f 343/4/6 341/4/6 345/4/6
f 340/4/6 344/4/6 346/4/6
f 344/4/6 345/4/6 346/4/6
f 345/4/6 341/4/6 347/4/6
f 346/4/6 345/4/6 347/4/6
f 348/2/6 349/2/6 351/2/6
f 351/2/6 349/2/6 352/2/6
f 350/2/6 351/2/6 355/2/6
f 352/2/6 353/2/6 355/2/6
f 351/2/6 352/2/6 355/2/6
f 355/2/6 353/2/6 356/2/6
f 354/2/6 355/2/6 359/2/6
f 359/2/6 355/2/6 360/2/6
f 356/2/6 357/2/6 361/2/6
f 361/2/6 357/2/6 362/2/6
f 362/2/6 363/2/6 364/2/6
f 364/2/6 363/2/6 365/2/6
f 358/2/6 359/2/6 368/2/6
f 368/2/6 359/2/6 369/2/6
f 365/2/6 366/2/6 370/2/6
f 370/2/6 366/2/6 371/2/6
f 367/2/6 368/2/6 374/2/6
f 374/2/6 368/2/6 375/2/6
f 371/2/6 372/2/6 376/2/6
f 376/2/6 372/2/6 377/2/6
f 374/2/6 375/2/6 379/2/6
f 377/2/6 378/2/6 379/2/6
f 376/2/6 377/2/6 379/2/6
f 375/2/6 376/2/6 379/2/6
f 373/2/6 374/2/6 379/2/6
f 379/2/6 378/2/6 380/2/6
f 381/4/6 382/4/6 383/4/6
f 383/4/6 382/4/6 384/4/6
